<svg xmlns="http://www.w3.org/2000/svg" viewBox="0 0 100 100" role="img" aria-label="NUNI">
  <!-- NUNI logo: "NU" stacked over "NI", block letters built from shapes (no font), on the amber brand tile. -->
  <defs><linearGradient id="tile" x1="0" y1="0" x2="1" y2="1"><stop offset="0" stop-color="#FFB703"/><stop offset="1" stop-color="#FB8500"/></linearGradient></defs>
  <rect width="100" height="100" rx="26" fill="url(#tile)"/>
  <g transform="translate(18 18) scale(0.64)">
  <g fill="#14172B"><rect x="24.00" y="16.00" width="7.00" height="30.00"/><polygon points="24.00,16.00 31.83,16.00 46.00,46.00 38.17,46.00"/><rect x="39.00" y="16.00" width="7.00" height="30.00"/><path d="M54.00 16.00 V35.00 A11.00 11.00 0 0 0 76.00 35.00 V16.00 H69.00 V35.00 A4.00 4.00 0 0 1 61.00 35.00 V16.00 Z"/></g>
  <g fill="#FFFFFF"><rect x="24.00" y="54.00" width="7.00" height="30.00"/><polygon points="24.00,54.00 31.83,54.00 46.00,84.00 38.17,84.00"/><rect x="39.00" y="54.00" width="7.00" height="30.00"/><rect x="61.50" y="54.00" width="7.00" height="30.00"/></g>
  </g>
</svg>
